<svg version="1.1" id="Layer_1" xmlns="http://www.w3.org/2000/svg" xmlns:xlink="http://www.w3.org/1999/xlink" x="0px" y="0px"
	 width="100%" viewBox="0 0 224 176"  enable-background="new 0 0 224 176" xml:space="preserve">
<path opacity="1.000000" stroke="none" fill="currentColor"  
	d="
M156.735306,122.711273 
	C153.502609,126.078094 152.750854,129.769135 152.824402,133.986649 
	C152.931641,140.137436 153.209137,146.303284 152.440567,152.459610 
	C151.262344,161.897247 144.506744,168.200821 135.043823,168.335541 
	C129.878403,168.409103 124.710342,168.400955 119.544739,168.333191 
	C109.371643,168.199753 101.975494,160.875717 101.687721,150.674408 
	C101.607864,147.843323 101.625160,145.007538 101.672859,142.175186 
	C101.803848,134.396362 101.042130,127.474319 96.427345,120.171112 
	C87.347061,105.800964 89.302162,79.067680 108.526863,67.638428 
	C130.235397,54.732510 161.054077,67.593666 162.425888,96.080956 
	C162.874420,105.394821 162.479767,114.395950 156.735306,122.711273 
M104.201607,89.893677 
	C101.701866,99.208641 100.724243,108.880424 107.289436,116.540672 
	C112.313507,122.402748 113.194717,128.453690 112.927818,135.375717 
	C112.761162,139.697769 112.651115,144.022507 112.564171,148.347031 
	C112.449295,154.060623 115.565910,157.421051 121.295341,157.610703 
	C125.120346,157.737305 128.955490,157.735641 132.781143,157.622925 
	C138.652451,157.449936 141.563416,154.484344 141.638214,148.543289 
	C141.728333,141.385620 141.727280,134.225281 141.638397,127.067680 
	C141.605469,124.416496 142.243790,122.193588 144.188614,120.317383 
	C151.814178,112.960854 152.873688,103.663536 151.168564,93.982574 
	C149.201782,82.815979 140.775040,75.263023 129.430756,73.541702 
	C120.112251,72.127762 109.955811,78.464905 104.201607,89.893677 
z"/>
<path fill="currentColor" opacity="1.000000" stroke="none" 
	d="
M62.508335,88.566727 
	C55.443996,99.856552 56.238171,110.474831 64.789711,119.980598 
	C66.441948,121.817200 67.466370,123.668739 67.487633,126.169395 
	C67.558418,134.493149 67.818298,142.816315 67.803116,151.139343 
	C67.796242,154.907166 66.683136,158.409134 61.988041,158.230576 
	C57.329433,158.053436 56.604145,154.589127 56.671673,150.755829 
	C56.721561,147.923904 56.625526,145.089066 56.692932,142.257874 
	C56.882710,134.286484 56.143433,127.190140 51.263401,119.781883 
	C43.896564,108.598488 44.795097,95.820656 51.992229,84.306572 
	C59.288540,72.633842 70.205261,67.152161 84.035942,67.686333 
	C84.532478,67.705513 85.038673,67.762276 85.515762,67.892014 
	C85.811554,67.972443 86.060852,68.223892 86.837608,68.726128 
	C84.241280,73.252853 83.158852,78.642731 76.175865,79.437958 
	C70.506538,80.083580 66.222122,83.818184 62.508335,88.566727 
z"/>
<path fill="currentColor" opacity="1.000000" stroke="none" 
	d="
M191.587830,73.256912 
	C209.340530,86.297661 212.796097,107.559013 200.102417,124.768539 
	C198.072342,127.520828 197.554642,130.396118 197.637848,133.649750 
	C197.790939,139.635345 197.893768,145.627716 197.777954,151.612640 
	C197.707764,155.240936 196.415558,158.381531 192.037262,158.246170 
	C187.710938,158.112427 186.661499,155.073639 186.673309,151.334473 
	C186.698013,143.512665 186.768082,135.689102 186.630676,127.869583 
	C186.574432,124.668358 187.581039,122.194748 189.694305,119.773689 
	C202.968979,104.565704 196.273407,83.615570 176.663254,79.215141 
	C170.817474,77.903358 170.241333,72.773293 166.989426,68.412750 
	C176.382812,66.413132 183.992844,68.845222 191.587830,73.256912 
z"/>
<path fill="currentColor" opacity="1.000000" stroke="none" 
	d="
M109.424072,17.713245 
	C119.432503,3.726478 138.644821,4.550173 145.520981,18.924681 
	C149.636902,27.528936 147.494904,37.676746 140.262878,43.835266 
	C133.570114,49.534561 123.045090,50.014126 115.671608,44.955727 
	C107.822495,39.571030 104.684563,29.711744 107.993187,20.760159 
	C108.337486,19.828644 108.814743,18.946274 109.424072,17.713245 
M135.586746,24.037495 
	C131.903503,18.570065 127.425728,17.117550 122.627457,19.833721 
	C118.434868,22.207029 116.704735,27.441648 118.662811,31.828979 
	C120.628181,36.232681 125.639854,38.350632 130.248871,36.725304 
	C135.242966,34.964184 137.320969,30.517818 135.586746,24.037495 
z"/>
<path fill="currentColor" opacity="1.000000" stroke="none" 
	d="
M62.261597,45.513771 
	C57.434429,36.300568 58.741364,27.326769 65.462074,21.740820 
	C71.897987,16.391581 81.681122,16.072834 88.062469,21.160637 
	C93.712936,25.665716 96.255745,31.658079 94.903824,38.757721 
	C93.474648,46.263119 88.781311,51.394760 81.271751,52.980988 
	C73.722939,54.575508 67.135422,52.426277 62.261597,45.513771 
M73.434280,29.981880 
	C70.775047,32.192142 69.413277,34.811481 71.050507,38.227608 
	C72.666245,41.598873 76.685692,43.258442 79.661591,41.770832 
	C83.293396,39.955345 84.613701,36.963329 83.340118,33.135189 
	C82.094521,29.391159 78.505188,28.136742 73.434280,29.981880 
z"/>
<path fill="currentColor" opacity="1.000000" stroke="none" 
	d="
M183.732712,52.259289 
	C172.488892,55.451393 162.541855,50.426945 159.902908,40.547489 
	C157.242081,30.586208 162.597366,20.899586 172.269363,18.179087 
	C180.937164,15.741038 190.387466,20.259813 193.740082,28.445591 
	C197.642242,37.973057 193.976624,46.995575 183.732712,52.259289 
M183.799393,35.496128 
	C182.525711,30.168392 179.266449,27.627909 175.328781,29.026108 
	C172.014252,30.203039 170.102493,32.579159 170.432663,36.187122 
	C170.767349,39.844204 173.371231,41.987049 176.634613,42.309330 
	C180.613312,42.702255 182.995071,40.174320 183.799393,35.496128 
z"/>
</svg>