<svg version="1.1" id="Layer_1" xmlns="http://www.w3.org/2000/svg" xmlns:xlink="http://www.w3.org/1999/xlink" x="0px" y="0px"
	 width="100%" viewBox="0 0 224 176" enable-background="new 0 0 224 176" xml:space="preserve">
<path fill="currentColor" opacity="1.000000" stroke="none" 
	d="
M125.842064,15.684568 
	C151.647629,26.218616 177.039230,36.675964 202.436279,47.120083 
	C205.922211,48.553623 208.336533,50.660572 208.400223,54.835152 
	C208.467133,59.219902 206.013092,61.496380 202.335785,63.011765 
	C196.180328,65.548393 190.119827,68.343109 183.863937,70.598015 
	C180.153503,71.935432 178.581009,74.077232 178.592712,77.940910 
	C178.634064,91.589455 177.825195,105.283882 178.695145,118.874084 
	C179.518509,131.736679 173.697617,139.743088 163.224869,145.459488 
	C153.140869,150.963745 142.162643,153.736313 130.845840,154.793610 
	C111.535667,156.597733 92.614357,155.144913 74.865616,146.301926 
	C63.300331,140.539734 56.622982,132.193359 57.495174,118.282066 
	C58.306473,105.342033 57.460430,92.306015 57.772934,79.322571 
	C57.885677,74.638405 56.706562,71.723701 51.984356,70.501549 
	C49.318794,69.811661 46.999187,67.948219 43.438412,67.740814 
	C43.438412,79.299812 43.383545,90.561012 43.452499,101.821457 
	C43.536079,115.470604 43.748810,129.118942 43.841873,142.768066 
	C43.856548,144.920120 43.796314,147.135284 43.312862,149.214828 
	C42.365597,153.289429 39.664108,155.510773 35.383736,155.287399 
	C30.912756,155.054092 28.455469,152.455032 27.752773,148.136215 
	C27.593901,147.159760 27.671764,146.141800 27.671600,145.142944 
	C27.666782,115.996483 27.748524,86.849571 27.592361,57.703934 
	C27.562317,52.096504 29.677799,48.734772 34.873207,46.621910 
	C58.770210,36.903496 82.607109,27.036509 106.430382,17.138123 
	C112.645630,14.555733 118.907936,13.782984 125.842064,15.684568 
M100.289864,90.346878 
	C91.647873,86.782402 83.005882,83.217918 73.409149,79.259644 
	C73.409149,93.669678 73.593445,106.792015 73.312767,119.904404 
	C73.209541,124.727013 75.125175,127.866585 79.016373,130.098709 
	C81.459206,131.500015 83.952583,132.892731 86.575783,133.886902 
	C101.848221,139.674988 117.620338,140.951843 133.664917,138.367416 
	C142.053833,137.016159 150.239059,134.798553 157.510605,130.058044 
	C160.944183,127.819603 162.863480,125.119652 162.760925,120.657822 
	C162.485626,108.679008 162.690628,96.689644 162.622131,84.704948 
	C162.613327,83.164124 163.311874,81.364594 161.467789,79.886795 
	C153.104645,83.314247 144.408783,86.273750 136.275406,90.354401 
	C124.377663,96.323708 112.818680,97.110390 100.289864,90.346878 
M96.308235,38.959465 
	C83.582100,44.145012 70.855972,49.330559 58.070667,54.540215 
	C58.888348,56.202297 60.092182,56.389698 61.128845,56.817684 
	C77.893150,63.738842 94.719345,70.515305 111.389137,77.656898 
	C116.241035,79.735519 120.537476,79.603264 125.253754,77.573860 
	C136.870010,72.575432 148.584167,67.804146 160.267044,62.961075 
	C166.174286,60.512264 172.099106,58.105858 178.196121,55.606441 
	C176.722504,53.541183 175.031647,53.155708 173.546753,52.543873 
	C158.008530,46.141552 142.342987,40.034660 126.940804,33.322536 
	C120.806778,30.649387 115.386314,30.351530 109.458588,33.504131 
	C105.513367,35.602348 101.173302,36.958141 96.308235,38.959465 
z"/>
</svg>